#!OML:ASF H:\BreakDance\Project 1\Capture day 1\Session 1\Male.ASF
:FULLY-SPECIFIED
:DEGREES
810
root 5.77868 15.7067 7.30886 -176.613 -59.8537 537.023
lowerback -0.0631925 0.989576 0.40512
upperback 5.02521 1.24118 -1.52487
thorax 5.27094 0.614869 -1.75331
lowerneck -1.32112 3.7607 1.3094
upperneck 10.9477 4.53841 2.24303
head 3.75812 2.29355 0.670066
rclavicle 5.16343e-014 3.77691e-015
rhumerus 25.6853 40.3729 -64.8204
rradius 36.4424
rwrist 10.8991
rhand -42.5982 -34.8583
rfingers 7.12502
rthumb -15.4714 -64.2592
lclavicle 5.16343e-014 3.77691e-015
lhumerus 20.6321 -34.4141 59.0708
lradius 39.6158
lwrist -13.948
lhand -44.0579 -395.524
lfingers 7.12502
lthumb -16.8769 -6.23777
rfemur -23.7842 -3.43046 1.50386
rtibia 42.3385
rfoot -11.8633 -12.9365
rtoes -32.8222
lfemur -11.4272 3.6704 -5.54574
ltibia 33.7116
lfoot -25.5558 18.5364
ltoes -41.6124
811
root 5.77979 15.7058 7.30511 -176.707 -59.682 537.096
lowerback -0.182019 1.03041 0.392857
upperback 4.98163 1.29926 -1.51643
thorax 5.29446 0.644213 -1.7332
lowerneck -1.30527 3.7912 1.31405
upperneck 11.0101 4.56356 2.35175
head 3.77443 2.3093 0.706569
rclavicle -7.87684e-014 3.45885e-014
rhumerus 25.712 40.5102 -64.7422
rradius 36.4186
rwrist 10.8554
rhand -42.5472 -34.8597
rfingers 7.12502
rthumb -15.4223 -64.2644
lclavicle -7.87684e-014 3.45885e-014
lhumerus 20.5358 -34.6181 58.9714
lradius 39.7471
lwrist -13.7873
lhand -44.1153 -395.266
lfingers 7.12502
lthumb -16.9322 -5.9844
rfemur -23.7821 -3.1186 1.54939
rtibia 42.3019
rfoot -11.9211 -12.9781
rtoes -32.5331
lfemur -11.2803 3.48219 -5.52322
ltibia 33.646
lfoot -25.692 18.8237
ltoes -41.6976
812
root 5.78099 15.7053 7.3028 -176.873 -59.5582 537.249
lowerback -0.294505 1.06182 0.455245
upperback 4.94939 1.34218 -1.51125
thorax 5.32783 0.66937 -1.75899
lowerneck -1.29044 3.80604 1.38598
upperneck 11.0443 4.57424 2.3796
head 3.78494 2.3178 0.704014
rclavicle -2.72335e-014 4.96962e-015
rhumerus 25.7702 40.6139 -64.6583
rradius 36.3825
rwrist 10.8504
rhand -42.5045 -34.877
rfingers 7.12502
rthumb -15.3811 -64.2848
lclavicle -2.72335e-014 4.96962e-015
lhumerus 20.4575 -34.8271 58.8426
lradius 39.9048
lwrist -13.6422
lhand -44.1546 -394.971
lfingers 7.12502
lthumb -16.97 -5.69227
rfemur -23.7604 -2.8338 1.63963
rtibia 42.2619
rfoot -11.9745 -13.0538
rtoes -32.2187
lfemur -11.1614 3.27722 -5.46102
ltibia 33.5997
lfoot -25.7982 19.1142
ltoes -41.8009
813
root 5.78247 15.7052 7.30177 -177.09 -59.487 537.462
lowerback -0.404524 1.08021 0.57015
upperback 4.93697 1.36511 -1.50304
thorax 5.38136 0.686757 -1.81198
lowerneck -1.31551 3.80509 1.50136
upperneck 11.0646 4.56937 2.34171
head 3.80122 2.3186 0.672653
rclavicle 4.56211e-014 -8.94531e-015
rhumerus 25.8667 40.6775 -64.5581
rradius 36.345
rwrist 10.881
rhand -42.4844 -34.9331
rfingers 7.12502
rthumb -15.3618 -64.3424
lclavicle 4.56211e-014 -8.94531e-015
lhumerus 20.3982 -35.0061 58.7085
lradius 40.074
lwrist -13.527
lhand -44.1838 -394.745
lfingers 7.12502
lthumb -16.9981 -5.46895
rfemur -23.7204 -2.60466 1.76243
rtibia 42.2179
rfoot -12.0227 -13.1525
rtoes -31.9407
lfemur -11.0759 3.07255 -5.36754
ltibia 33.5739
lfoot -25.8792 19.3742
ltoes -41.9058
814
root 5.78453 15.7052 7.30148 -177.318 -59.4655 537.687
lowerback -0.509054 1.08119 0.692606
upperback 4.94882 1.36295 -1.48681
thorax 5.45646 0.691678 -1.86218
lowerneck -1.41443 3.80154 1.64138
upperneck 11.0923 4.5647 2.25385
head 3.83647 2.31965 0.622682
rclavicle -3.0265e-014 -1.07344e-014
rhumerus 26.0027 40.7097 -64.4332
rradius 36.3222
rwrist 10.9372
rhand -42.4842 -35.0023
rfingers 7.12502
rthumb -15.3616 -64.4117
lclavicle -3.0265e-014 -1.07344e-014
lhumerus 20.3573 -35.1189 58.5953
lradius 40.2275
lwrist -13.446
lhand -44.2206 -394.628
lfingers 7.12502
lthumb -17.0335 -5.35462
rfemur -23.664 -2.43104 1.89153
rtibia 42.1725
rfoot -12.0551 -13.2645
rtoes -31.7301
lfemur -11.0195 2.87767 -5.26461
ltibia 33.5629
lfoot -25.927 19.5701
ltoes -41.934
815
root 5.78722 15.7056 7.30131 -177.501 -59.4841 537.858
lowerback -0.604829 1.06251 0.771413
upperback 4.97982 1.33456 -1.46521
thorax 5.54438 0.681278 -1.88388
lowerneck -1.56122 3.81021 1.75673
upperneck 11.1103 4.57707 2.17672
head 3.87665 2.32931 0.582078
rclavicle 1.01181e-013 -4.37326e-015
rhumerus 26.1666 40.7343 -64.2845
rradius 36.3262
rwrist 10.99
rhand -42.4946 -35.0391
rfingers 7.12502
rthumb -15.3716 -64.4477
lclavicle 1.01181e-013 -4.37326e-015
lhumerus 20.3241 -35.153 58.5144
lradius 40.3478
lwrist -13.3865
lhand -44.2808 -394.614
lfingers 7.12502
lthumb -17.0915 -5.34534
rfemur -23.5974 -2.30959 1.99069
rtibia 42.1302
rfoot -12.0649 -13.3822
rtoes -31.6231
lfemur -10.9823 2.69865 -5.18642
ltibia 33.5556
lfoot -25.9416 19.6902
ltoes -41.8566
816
root 5.79 15.7062 7.30083 -177.58 -59.5225 537.903
lowerback -0.693312 1.02609 0.7596
upperback 5.02417 1.28469 -1.44493
thorax 5.639 0.655819 -1.85756
lowerneck -1.70816 3.83866 1.80117
upperneck 11.0937 4.61478 2.16495
head 3.9009 2.35143 0.575465
rclavicle 2.65378e-014 -2.16675e-014
rhumerus 26.3454 40.7824 -64.1111
rradius 36.3642
rwrist 11.0095
rhand -42.5047 -35.0358
rfingers 7.12502
rthumb -15.3814 -64.4436
lclavicle 2.65378e-014 -2.16675e-014
lhumerus 20.2718 -35.099 58.4826
lradius 40.4335
lwrist -13.3561
lhand -44.3624 -394.699
lfingers 7.12502
lthumb -17.1701 -5.43776
rfemur -23.5241 -2.2401 2.01712
rtibia 42.0956
rfoot -12.055 -13.4781
rtoes -31.6039
lfemur -10.9423 2.53835 -5.17554
ltibia 33.5397
lfoot -25.9378 19.7394
ltoes -41.6559
817
root 5.79235 15.7069 7.30003 -177.567 -59.5583 537.828
lowerback -0.77871 0.979731 0.665739
upperback 5.07578 1.22417 -1.42724
thorax 5.73725 0.621031 -1.78875
lowerneck -1.81665 3.88626 1.78501
upperneck 11.0375 4.67806 2.20844
head 3.90026 2.38566 0.596761
rclavicle -3.54831e-014 3.77691e-015
rhumerus 26.5181 40.8712 -63.9213
rradius 36.4345
rwrist 10.9814
rhand -42.508 -35.0018
rfingers 7.12502
rthumb -15.3845 -64.4094
lclavicle -3.54831e-014 3.77691e-015
lhumerus 20.182 -34.9748 58.5048
lradius 40.4941
lwrist -13.359
lhand -44.4486 -394.869
lfingers 7.12502
lthumb -17.253 -5.61492
rfemur -23.4462 -2.21757 1.97465
rtibia 42.0715
rfoot -12.0337 -13.5063
rtoes -31.5879
lfemur -10.8805 2.4005 -5.22969
ltibia 33.5075
lfoot -25.93 19.7544
ltoes -41.3809
818
root 5.79432 15.7075 7.29921 -177.519 -59.5802 537.7
lowerback -0.856742 0.932061 0.535347
upperback 5.11855 1.16362 -1.40873
thorax 5.82139 0.584327 -1.69891
lowerneck -1.82966 3.94223 1.72085
upperneck 10.9308 4.75403 2.2936
head 3.8605 2.42492 0.637034
rclavicle -7.72775e-014 1.17283e-014
rhumerus 26.652 41.0097 -63.7319
rradius 36.5286
rwrist 10.9053
rhand -42.5004 -34.9734
rfingers 7.12502
rthumb -15.3772 -64.3816
lclavicle -7.72775e-014 1.17283e-014
lhumerus 20.0432 -34.8279 58.5743
lradius 40.5425
lwrist -13.3727
lhand -44.5166 -395.091
lfingers 7.12502
lthumb -17.3185 -5.84253
rfemur -23.3697 -2.23074 1.90259
rtibia 42.058
rfoot -12.0153 -13.454
rtoes -31.5193
lfemur -10.7952 2.2934 -5.31088
ltibia 33.4581
lfoot -25.9276 19.7684
ltoes -41.1229
819
root 5.79625 15.7079 7.29876 -177.491 -59.586 537.586
lowerback -0.913936 0.886676 0.409381
upperback 5.13665 1.10658 -1.38218
thorax 5.86787 0.549409 -1.6034
lowerneck -1.7234 3.99229 1.63682
upperneck 10.7883 4.82589 2.37524
head 3.78434 2.45982 0.675342
rclavicle -3.34455e-014 1.25234e-014
rhumerus 26.742 41.2172 -63.5369
rradius 36.6335
rwrist 10.7754
rhand -42.4712 -34.9877
rfingers 7.12502
rthumb -15.349 -64.398
lclavicle -3.34455e-014 1.25234e-014
lhumerus 19.8477 -34.6957 58.6821
lradius 40.5891
lwrist -13.3817
lhand -44.5589 -395.313
lfingers 7.12502
lthumb -17.3591 -6.06772
rfemur -23.3007 -2.26521 1.84067
rtibia 42.0545
rfoot -11.9923 -13.3635
rtoes -31.4737
lfemur -10.6916 2.22729 -5.37867
ltibia 33.3964
lfoot -25.9346 19.7706
ltoes -40.9076
820
root 5.79865 15.7079 7.29886 -177.513 -59.5771 537.529
lowerback -0.940401 0.846446 0.312104
upperback 5.12451 1.05583 -1.34535
thorax 5.86563 0.518925 -1.51334
lowerneck -1.53171 4.02898 1.57091
upperneck 10.6462 4.88381 2.40895
head 3.69386 2.48553 0.691782
rclavicle -1.19271e-014 -3.16068e-014
rhumerus 26.8027 41.4879 -63.3319
rradius 36.7312
rwrist 10.5996
rhand -42.4261 -35.0443
rfingers 7.12502
rthumb -15.3056 -64.458
lclavicle -1.19271e-014 -3.16068e-014
lhumerus 19.6058 -34.6009 58.8106
lradius 40.6415
lwrist -13.3838
lhand -44.5905 -395.47
lfingers 7.12502
lthumb -17.3896 -6.22741
rfemur -23.247 -2.30294 1.81321
rtibia 42.0606
rfoot -11.9626 -13.264
rtoes -31.4681
lfemur -10.5829 2.20486 -5.40739
ltibia 33.3299
lfoot -25.9516 19.7459
ltoes -40.764
821
root 5.8018 15.7074 7.29937 -177.558 -59.5509 537.502
lowerback -0.93408 0.815875 0.237135
upperback 5.08623 1.01768 -1.30803
thorax 5.81799 0.495939 -1.43489
lowerneck -1.31219 4.05315 1.53699
upperneck 10.5367 4.92625 2.39276
head 3.61226 2.50237 0.685656
rclavicle -3.08365e-014 -8.74653e-015
rhumerus 26.8392 41.7867 -63.1324
rradius 36.8108
rwrist 10.413
rhand -42.3806 -35.1384
rfingers 7.12502
rthumb -15.2618 -64.5554
lclavicle -3.08365e-014 -8.74653e-015
lhumerus 19.3366 -34.5533 58.9423
lradius 40.704
lwrist -13.3715
lhand -44.6228 -395.52
lfingers 7.12502
lthumb -17.4206 -6.28015
rfemur -23.2136 -2.32729 1.80566
rtibia 42.0763
rfoot -11.9445 -13.1521
rtoes -31.4133
lfemur -10.4782 2.22052 -5.4117
ltibia 33.265
lfoot -25.9817 19.7023
ltoes -40.7566
822
root 5.80561 15.7066 7.30007 -177.604 -59.5022 537.48
lowerback -0.896626 0.799248 0.177339
upperback 5.03292 0.997946 -1.27867
thorax 5.73776 0.483085 -1.37245
lowerneck -1.1251 4.06983 1.54706
upperneck 10.4836 4.95836 2.32366
head 3.55975 2.51399 0.656432
rclavicle -1.83379e-014 -1.78906e-015
rhumerus 26.856 42.0747 -62.953
rradius 36.8681
rwrist 10.2574
rhand -42.3421 -35.2415
rfingers 7.12502
rthumb -15.2247 -64.6613
lclavicle -1.83379e-014 -1.78906e-015
lhumerus 19.0661 -34.5512 59.0597
lradius 40.7742
lwrist -13.3367
lhand -44.6585 -395.458
lfingers 7.12502
lthumb -17.4551 -6.22127
rfemur -23.2007 -2.32586 1.80265
rtibia 42.101
rfoot -11.9291 -13.0397
rtoes -31.3253
lfemur -10.3765 2.26246 -5.40948
ltibia 33.2059
lfoot -26.028 19.6672
ltoes -40.9201
